<svg xmlns="http://www.w3.org/2000/svg" viewBox="0 0 1000 1000" width="30" height="16"><path d="M123.25 141.53c-46.52 2.69-81.31 25.37-101.68 66.51-12.3 24.8-11.92 10.76-11.34 297.94l.58 261.03L16 781.43c12.49 34.02 40.37 61.7 74.2 73.43l12.88 4.42h795.8l13.26-5.19c34.98-14.22 60.16-39.79 72.66-74.58l4.42-12.5.58-261.03c.58-287.18.96-273.34-11.34-298.33-15.57-31.72-43.83-54.59-78.23-63.43-10.96-2.88-48.63-3.27-384.44-3.46-204.74-.19-381.39.2-392.54.77zm718.71 91.5c-.19 2.69-333.7 237.97-336.77 237.78-2.69-.2-316.59-236.43-316.59-238.36 0-.38 147.05-.77 326.77-.77 179.73 0 326.78.58 326.59 1.35zM302.4 434.48c109.76 83.04 200.29 150.89 201.25 150.89 1.15 0 89.96-62.67 197.6-138.98l195.68-139.17.58 222.21c.38 212.21.19 222.4-3.08 226.82-1.92 2.69-5.96 6.54-8.84 8.65l-5.19 4.04H119.6l-5.19-4.04c-2.88-2.11-7.11-6.34-9.23-9.23-4.04-5.19-4.04-6.34-4.61-238.74-.19-128.4.19-233.36.96-233.36.96.01 91.3 67.87 200.87 150.91z"/></svg>