<svg xmlns="http://www.w3.org/2000/svg" viewBox="0 0 1000 1000" width="30" height="16"><path d="M943.4 563.1c2.7-19.9 4.2-40.1 4.2-60.7 0-247.2-201.5-447.6-450-447.6-24.7 0-48.9 2-72.5 5.9C382.9 33.1 332.6 17 278.5 17 130.1 17 10 137.3 10 285.6c0 54 15.9 104.1 43.2 146.2-3.7 23-5.6 46.6-5.6 70.6 0 247.3 201.4 447.7 450 447.7 28.1 0 55.4-2.7 81.9-7.5 41.2 25.6 89.8 40.5 141.9 40.5C869.8 983 990 862.7 990 714.4c0-56.1-17.2-108.2-46.6-151.3zM539.7 832.3c-143 7.5-209.9-24.2-271.2-81.7-68.5-64.2-41-137.5 14.8-141.3 55.7-3.7 89.2 63.2 119 81.8 29.7 18.5 142.8 60.8 202.5-7.5 65-74.3-43.2-112.8-122.6-124.4-113.3-16.8-256.4-78.1-245.3-198.9C248 239.6 339.5 177.7 435.7 169c122.6-11.1 202.5 18.6 265.6 72.5 73 62.3 33.5 131.9-13 137.5-46.3 5.6-98.4-102.4-200.6-104-105.3-1.7-176.5 109.6-46.5 141.2 130.1 31.6 269.4 44.6 319.6 163.5 50.2 118.8-78 245.1-221.1 252.6z"/></svg>