<svg xmlns="http://www.w3.org/2000/svg" xmlns:xlink="http://www.w3.org/1999/xlink"><symbol id="icon-address" viewBox="0 0 1000 1000">
<metadata> Svg Vector Icons : http://www.onlinewebfonts.com/icon </metadata>
<g><g><path d="M980.2,263.1l-116.4-89.7c-6.6-4.6-15.9-8.6-25.5-11.6c-9.7-3-19.7-4.8-27.8-4.8h-335l39.2,245h295.7c8,0,18.1-1.8,27.7-4.8c9.7-3,19-7.1,25.5-11.6l116.4-89.8c6.6-4.5,9.9-10.4,9.9-16.4S986.7,267.6,980.2,263.1L980.2,263.1z M426.5,59h-49C364,59,353,70,353,83.5V255H189.5c-8.1,0-18.1,1.8-27.8,4.9c-9.7,2.9-19,7-25.5,11.6L19.8,361.1c-6.6,4.5-9.8,10.4-9.8,16.4c0,5.9,3.2,11.9,9.8,16.4l116.4,89.8c6.6,4.5,15.8,8.6,25.5,11.5c9.7,3,19.6,4.8,27.8,4.8H353v416.5c0,13.5,11,24.5,24.5,24.5h49c13.5,0,24.5-11,24.5-24.5v-833C451,70,440,59,426.5,59L426.5,59z"/></g></g>
</symbol><symbol id="icon-email" viewBox="0 0 1000 1000">
<metadata> Svg Vector Icons : http://www.onlinewebfonts.com/icon </metadata>
<g><g transform="translate(0.000000,511.000000) scale(0.100000,-0.100000)"><path d="M1232.5,3694.7c-465.2-26.9-813.1-253.7-1016.8-665.1c-123-248-119.2-107.6-113.4-2979.4l5.8-2610.3l51.9-144.2c124.9-340.2,403.7-617,742-734.3l128.8-44.2h3979h3979l132.6,51.9c349.8,142.2,601.6,397.9,726.6,745.8l44.2,125l5.8,2610.3c5.8,2871.8,9.6,2733.4-113.4,2983.3c-155.7,317.2-438.3,545.9-782.3,634.3c-109.6,28.8-486.3,32.7-3844.4,34.6C3110.5,3704.3,1344,3700.4,1232.5,3694.7z M8419.6,2779.7c-1.9-26.9-3337-2379.7-3367.7-2377.8C5025,403.9,1886,2766.2,1886,2785.5c0,3.8,1470.5,7.7,3267.7,7.7C6951,2793.2,8421.5,2787.4,8419.6,2779.7z M3024,765.2C4121.6-65.2,5026.9-743.7,5036.5-743.7c11.5,0,899.6,626.7,1976,1389.8l1956.8,1391.7l5.8-2222.1c3.8-2122.1,1.9-2224-30.8-2268.2c-19.2-26.9-59.6-65.4-88.4-86.5l-51.9-40.4H5000H1196l-51.9,40.4c-28.8,21.1-71.1,63.4-92.3,92.3c-40.4,51.9-40.4,63.4-46.1,2387.4c-1.9,1284,1.9,2333.6,9.6,2333.6C1024.9,2274.2,1928.3,1595.6,3024,765.2z"/></g></g>
</symbol><symbol id="icon-phone" viewBox="0 0 1000 1000">
<metadata> Svg Vector Icons : http://www.onlinewebfonts.com/icon </metadata>
<g><g><path d="M990,784c0,12.5-2.3,28.9-7,49.1c-4.6,20.2-9.5,36.1-14.6,47.7c-9.7,23.2-38,47.8-84.9,73.8C839.9,978.2,796.7,990,754,990c-12.5,0-24.7-0.8-36.5-2.4c-11.8-1.6-25.2-4.5-40-8.7c-14.8-4.2-25.9-7.5-33.1-10.1c-7.2-2.6-20.1-7.3-38.6-14.3c-18.6-7-29.9-11.1-34.1-12.5c-45.5-16.2-86.1-35.5-121.8-57.8c-59.4-36.7-120.8-86.7-184.1-150c-63.3-63.3-113.3-124.7-150-184.1C93.5,514.4,74.3,473.8,58,428.3c-1.4-4.2-5.6-15.5-12.5-34.1c-7-18.6-11.7-31.4-14.3-38.6c-2.6-7.2-5.9-18.2-10.1-33.1c-4.2-14.8-7.1-28.2-8.7-40S10,258.5,10,246c0-42.7,11.8-85.8,35.5-129.5c26-46.9,50.6-75.2,73.8-84.9c11.6-5.1,27.5-10,47.7-14.6c20.2-4.6,36.5-7,49.1-7c6.5,0,11.4,0.7,14.6,2.1c8.4,2.8,20.6,20.4,36.9,52.9c5.1,8.8,12.1,21.3,20.9,37.6c8.8,16.2,16.9,31,24.4,44.2c7.4,13.2,14.6,25.6,21.6,37.2c1.4,1.9,5.5,7.7,12.2,17.4c6.7,9.7,11.7,18,15,24.7c3.2,6.7,4.9,13.3,4.9,19.8c0,9.3-6.6,20.9-19.8,34.8c-13.2,13.9-27.6,26.7-43.2,38.3c-15.5,11.6-29.9,23.9-43.2,36.9c-13.2,13-19.8,23.7-19.8,32c0,4.2,1.2,9.4,3.5,15.7c2.3,6.3,4.3,11,5.9,14.3c1.6,3.2,4.9,8.8,9.7,16.7s7.5,12.3,8,13.2c35.3,63.6,75.6,118.1,121.1,163.6c45.5,45.5,100,85.8,163.6,121.1c0.9,0.5,5.3,3.1,13.2,8c7.9,4.9,13.5,8.1,16.7,9.7c3.2,1.6,8,3.6,14.3,5.9c6.3,2.3,11.5,3.5,15.7,3.5c8.4,0,19-6.6,32-19.8c13-13.2,25.3-27.6,36.9-43.2c11.6-15.5,24.4-29.9,38.3-43.2s25.5-19.8,34.8-19.8c6.5,0,13.1,1.6,19.8,4.9c6.7,3.2,15,8.2,24.7,15s15.5,10.8,17.4,12.2c11.6,7,24,14.2,37.2,21.6c13.2,7.4,28,15.5,44.2,24.4c16.2,8.8,28.8,15.8,37.6,20.9c32.5,16.2,50.1,28.5,52.9,36.9C989.3,772.6,990,777.5,990,784L990,784z"/></g></g>
</symbol><symbol id="icon-skype" viewBox="0 0 1000 1000">
<metadata> Svg Vector Icons : http://www.onlinewebfonts.com/icon </metadata>
<g><g><path d="M943.4,563.1c2.7-19.9,4.2-40.1,4.2-60.7c0-247.2-201.5-447.6-450-447.6c-24.7,0-48.9,2-72.5,5.9C382.9,33.1,332.6,17,278.5,17C130.1,17,10,137.3,10,285.6c0,54,15.9,104.1,43.2,146.2c-3.7,23-5.6,46.6-5.6,70.6c0,247.3,201.4,447.7,450,447.7c28.1,0,55.4-2.7,81.9-7.5c41.2,25.6,89.8,40.5,141.9,40.5C869.8,983,990,862.7,990,714.4C990,658.3,972.8,606.2,943.4,563.1z M539.7,832.3c-143,7.5-209.9-24.2-271.2-81.7c-68.5-64.2-41-137.5,14.8-141.3c55.7-3.7,89.2,63.2,119,81.8c29.7,18.5,142.8,60.8,202.5-7.5c65-74.3-43.2-112.8-122.6-124.4c-113.3-16.8-256.4-78.1-245.3-198.9C248,239.6,339.5,177.7,435.7,169c122.6-11.1,202.5,18.6,265.6,72.5c73,62.3,33.5,131.9-13,137.5c-46.3,5.6-98.4-102.4-200.6-104c-105.3-1.7-176.5,109.6-46.5,141.2c130.1,31.6,269.4,44.6,319.6,163.5C811,698.5,682.8,824.8,539.7,832.3z"/></g><g/><g/><g/><g/><g/><g/><g/><g/><g/><g/><g/><g/><g/><g/><g/></g>
</symbol><symbol id="icon-telegram" viewBox="0 0 1000 1000">
<metadata> Svg Vector Icons : http://www.onlinewebfonts.com/icon </metadata>
<g><g><path d="M798.9,938.3c-7.7,0-15.3-2.3-21.8-6.7L530.7,764.5l-132.2,95.1c-10.4,7.5-23.7,9.3-35.8,5c-12-4.3-21.1-14.3-24.4-26.6L272,586.5L34.9,495.8c-14.9-5.7-24.8-20-24.9-36c-0.1-16,9.6-30.4,24.4-36.3L936,64.8c4.1-1.7,8.4-2.7,12.8-3c1.6-0.1,3.1-0.1,4.7,0c9,0.5,17.9,4.2,24.9,11c0.7,0.7,1.4,1.4,2,2.2c5.7,6.6,8.9,14.6,9.5,22.7c0.1,2,0.1,4.1,0,6.2c-0.1,1.5-0.3,3-0.6,4.4L837,906.8c-2.4,12.8-11.2,23.6-23.2,28.6C809,937.3,804,938.3,798.9,938.3z M552.4,685.4l219.5,148.9L890.3,213L462.6,624.5l88.7,60.2C551.7,684.9,552,685.1,552.4,685.4z M369.7,652.3L399,763.6l63.3-45.6l-82.9-56.2C375.6,659.2,372.3,656,369.7,652.3z M155.5,458.9l162.8,62.2c11.7,4.5,20.5,14.3,23.7,26.3l20.6,78.3c0.9-9,5-17.5,11.7-23.9l407.5-392.1L155.5,458.9z"/></g><g/><g/><g/><g/><g/><g/><g/><g/><g/><g/><g/><g/><g/><g/><g/></g>
</symbol></svg>